<svg xmlns="http://www.w3.org/2000/svg" xmlns:xlink="http://www.w3.org/1999/xlink" width="486.826" height="475.889" viewBox="0 0 486.826 475.889">
  <defs>
    <filter id="Path_6" x="12.088" y="0" width="474.737" height="475.889" filterUnits="userSpaceOnUse">
      <feOffset dy="7" input="SourceAlpha"/>
      <feGaussianBlur stdDeviation="5" result="blur"/>
      <feFlood flood-opacity="0.161"/>
      <feComposite operator="in" in2="blur"/>
      <feComposite in="SourceGraphic"/>
    </filter>
  </defs>
  <g id="Kiosk_logo" data-name="Kiosk logo" transform="translate(0 8.06)">
    <path id="Path_1" data-name="Path 1" d="M286.109,470.41c2.252-3,4.4-6.078,6.484-9.21-5.773,1.524-11.089,4.622-17.353,5.875C278.863,468.277,282.486,469.327,286.109,470.41Z" transform="translate(-91.768 -125.18)"/>
    <path id="Path_2" data-name="Path 2" d="M202.863,387.408c6.772.965,13.544,2.269,20.147,3.708A175.952,175.952,0,0,1,235.589,362a227.361,227.361,0,0,1-11.242-20.926,196.378,196.378,0,0,0-10.9,19.656c-8.77,5.553-28-5.519-37.737-5.519,13.29,0,26.58,4.08,39.87.9l-48.708-2.252,40.463,20.858Q204.878,380.957,202.863,387.408Z" transform="translate(-166.87 -208.432)"/>
    <path id="Path_3" data-name="Path 3" d="M299.428,312.7a25.535,25.535,0,0,1,.1-2.777h4.842a13.984,13.984,0,0,0,2.557-2.675c0,2.59,1.964,1.219,3.657,1.185v-1.879a7.241,7.241,0,0,1-.288-1.49l5.079-.135a8.228,8.228,0,0,0,.9,4.012h17.32a13.051,13.051,0,0,0,2.557-2.675c0,2.59,1.981,1.219,3.657,1.185v-1.862a9.191,9.191,0,0,1-.3-1.541l2.607-.152h0l8.177-.508a7.7,7.7,0,0,0,.863,3.217h11.259a28.289,28.289,0,0,1-6.772-6.908,6.267,6.267,0,0,1-1.388-1.371c-1.287.389-2.387-.779-3.606-1.541,0,1.3-.186,2.658-.271,4h-5.79l-5.079.559c.186-3.047.8-6.264-.609-8.736l-4.419,6.907c5.942,4.47-3.792,7.619-9.684,7.161a26.815,26.815,0,0,1-4.08-4.622c-6.213-4.656,4.69-7.889,10.446-7.094v-.728c-.931-.626-1.795-1.219-2.641-1.693h-6.941a13.057,13.057,0,0,0-2.556,2.675c0-2.59-1.981-1.219-3.657-1.185v1.9a18.1,18.1,0,0,1,.135,6.5h-4.977l-.2.169c.169-3.132.863-6.484-.593-9.058l-4.419,6.924c4.69,3.5-.372,6.213-5.6,6.975.22-5.384.44-10.785.593-16.2a196.389,196.389,0,0,0-79.572,44.188q7.822,6.6,15.457,13.426A176.174,176.174,0,0,1,299.428,312.7Z" transform="translate(-129.551 -242.972)"/>
    <path id="Path_4" data-name="Path 4" d="M226.919,328.66a153.269,153.269,0,0,1,47.54-26.936c0-1.862.135-3.742.22-5.655a155.19,155.19,0,0,0-16.185,6.5l-1.134-1.27c-13.866,6.383-20.418-21.772-28.51-29.865,9.4,9.4,15.914,21.687,27.562,28.781L223.567,264.19l15.643,48.945A158.224,158.224,0,0,0,222.89,325.1C224.228,326.307,225.582,327.475,226.919,328.66Z" transform="translate(-128.047 -261.711)"/>
    <path id="Path_5" data-name="Path 5" d="M300.955,296.342c1.371-2.523,7.974-3.962,12.02-3.386v-.643c-.914-.626-1.795-1.219-2.641-1.693h-6.941a13.541,13.541,0,0,0-2.539,2.675c0-2.59-1.981-1.219-3.674-1.2v1.879a7.116,7.116,0,0,1,.2.813,24.143,24.143,0,0,1,3.572,1.558Z" transform="translate(-76.564 -243.394)"/>
    <g transform="matrix(1, 0, 0, 1, 0, -8.06)" filter="url(#Path_6)">
      <path id="Path_6-2" data-name="Path 6" d="M600.587,517.522c5.35.152,3.386-6.332,8.736-6.18-2.59-2.743-6.484,1.964-6.958.339-1.913-6.3,3.945-6.772,8.854-8.143a29.711,29.711,0,0,1-.593-7.5,87.344,87.344,0,0,1-9.43.085,87.321,87.321,0,0,0,9.43-.085,20.96,20.96,0,0,1,1.693-6.891c.085-.169.135-.322.2-.491,4.25-9.972,8.465-19.927,15.085-28.646-.846-.372-1.693-.745-2.523-1.084a96.283,96.283,0,0,1-11.242,4.994c-1.151,4.91-1.778,9.955-5.621,14.187,1.117-2.116.643-3.742-.339-6.975-2.269,4.216-7.128,5.689-11.513,8.77,2.336-4.351,5.672-8.16,7.415-12.376-8.177,2.9-16.067,5.926-22.568,11.123a74.627,74.627,0,0,0-6.027,5.79,194.949,194.949,0,0,0-5.4-32.573c-5.519-.237-11.309-1.168-15.237-5.079a130.2,130.2,0,0,1,12.325-5.079c-.372-1.2-.745-2.387-1.151-3.555A51.3,51.3,0,0,1,544.4,433.21a36.264,36.264,0,0,0,16.778-7.348,196.9,196.9,0,0,0-38.939-60.373l-1.693-1.693c-.474-.474-.931-.965-1.388-1.439q-2.844-2.9-5.807-5.638A195.814,195.814,0,0,0,490.8,338.537c-1.3-.914-2.641-1.693-3.979-2.641-3.284-2.167-6.62-4.266-10.057-6.247a194.826,194.826,0,0,0-37.416-16.524V312.8c-14.323-5.3.965-29.848.965-41.276,0,13.29-4.08,26.58-.914,39.87l2.269-48.708-23.177,44.983a195.93,195.93,0,0,0-22.009-3.2q4.673,10.767,9.295,21.552A176.446,176.446,0,0,1,555.553,500.237c0,1.608,0,3.217-.1,4.808-13.544,10.378-33.725,1.879-43.494,13.019a112.931,112.931,0,0,1-8.973,8.465l.8.119c5.841,1.693-2.4,9.582-8.888,11.529,3.081,4.385,10.7.322,7.94,2.912A42.325,42.325,0,0,1,493.5,553.3c1.524,9.142.8,17.573-7.568,23.482L484.48,571.9a81.079,81.079,0,0,0-9.176,2.133h0c-9.329,2.573-19.046,5.485-27.308,0,1.3,10.158,11.512,8.905,18.979,10.158-3.826,1.778-7.517,3.285-11.174,4.656a3.556,3.556,0,0,0,.677,1.3,3.555,3.555,0,0,1-.677-1.3c-1.693.609-3.268,1.185-4.91,1.693a5.078,5.078,0,0,0,.846,1.693c4.233,2.269,6.772,5.079,5.2,5.5-5.079,6.772-10.023,13.646-16.355,10.243-3.725-.643,4.029-10.057.3-10.7-11.631.169-25.4,8.838-28.781-5.976-.389.135-.8.271-1.2.372-.135,7.381,6.18,19.063-2.015,16.93-5.282-1.609-10.835-8.939-12.444-16.693-2.743-.356-5.519-.813-8.262-1.236-1.117.389-2.235.8-3.386,1.151l.762.288,1.168.508a19.691,19.691,0,0,1,2.81-1.185c-.779,26.766-37.432,16.591-55.26,22.009-.982-3.251,1.693-5.841-.83-8.6-5.655,10.547-22.212,8.465-25.785,2.472-3.183-4.52-3.742-11.258-4.757-17.556-3.945-4.453-7.4-9.312-10.666-11.191l-.356,1.456c-.2.745-.389,1.473-.626,2.167.237-.694.423-1.422.626-2.167l.356-1.456a5.08,5.08,0,0,0-2.777-.8,40.966,40.966,0,0,1-10.581.322c1.524,3.5,3.911,6.315,6.772,7.026-2.844-.711-5.231-3.521-6.772-7.026-16.93-1.693-27.308-14.729-39.566-25.869-2.1-1.134-7.619,4.063-9.718,2.929-8.245-6.772-14.763-16.795-23.7-24.075a176.237,176.237,0,0,1-2.709-30.847c0-5.807.288-11.563.83-17.218l.2-1.693c-6.518,0-12.935-.83-19.554-.948,0,.576-.085,1.151-.135,1.693h-.813c-.559,5.993-.846,12.071-.846,18.2a197.254,197.254,0,0,0,4.029,39.752,125.915,125.915,0,0,0,6.941,13.544l-9.379,18.251a194.837,194.837,0,0,0,3.386,23.905l.914,1.964a79.776,79.776,0,0,1,8.821,9.887,50.79,50.79,0,0,1,8.279,17.472c1.693,5.672,3.014,11.411,4.927,16.591a218.7,218.7,0,0,0,25.988,24.633c6.2,3.1,12.748,5.824,18.928,8.465a16.812,16.812,0,0,1-2.743-8.228c4.707,3.877,12.647,6.772,16.236,12.782-3.1-4.368-1.321-10.158-2.3-13.544,1.134-2.116,5.841,1.778,7.466,1.287,4.063,4.842,5.2,12.681,7.263,19.673a182.737,182.737,0,0,0,29,8.38,2.01,2.01,0,0,1,.423-.22c.643-3.725-2.438-8.093-3.386-11.343,8.922,6.163,18.979,10.158,29.052,14.238-5.2-5.5-7.652-13.544-9.6-20.1,23.11,9.278,54.481,15.051,75.22,30.914,11.851-1.388,23.7-5.655,34.317-4.114,5.418-5.807,10.412-12.443,17.607-15.626,10.581,23.33,26.276-.846,44.594-4.6-1.693.491-1.693.491-1.134,2.1,2.743-5.079,7.974-8.38,10.92-12.681-3.775-1.49-10.158-2.59-10.158-5.655,0,3.064,6.45,4.165,10.158,5.655a13.054,13.054,0,0,0,1.693-3.132c9.481-1.185,11.157-17.54,16.134-12.274l.745.711a12.325,12.325,0,0,0,.593-5.943h0V652.9c-1.05.474-2.286-2.963-3.284-1.134-1.456-4.859,1.93-11.191,3.555-11.682a44.15,44.15,0,0,0,12.579-5.824,132.8,132.8,0,0,1,12.139-18.081,53.654,53.654,0,0,0,1.354-6.942c.643-3.725,7.619-4.063,11.5-8.77,4.368-3.081-2.286-13.459-9.413-7.771-2.252-7.466,3.488-8.346,9.481-9.972a19.73,19.73,0,0,1-4.791-3.826c10.361-6.654,30.3-10.9,20.062-27.258,5.841,1.693,10.7.3,15.559-1.168-4.216-2.252-10.547-5.655-7.788-8.262,1.693-5.316,9.718-3.775,16.05-4.96.186-1.067.356-2.133.474-3.217,3.742.643,2.269-4.216,5.993-3.572a16.931,16.931,0,0,1,1.9-9.515,29.728,29.728,0,0,0-12.579-3.42ZM289.479,585.615a3.082,3.082,0,0,0,.711-.762,3.082,3.082,0,0,1-.711.762Zm1.033-1.27a9.6,9.6,0,0,0,.525-1.185A9.6,9.6,0,0,1,290.512,584.345Zm169.978,8.584c.542.237,1.067.491,1.591.762A10.509,10.509,0,0,0,460.49,592.929Zm13.95-3.708a16.287,16.287,0,0,0,2.184-7.788A16.287,16.287,0,0,1,474.441,589.221Z" transform="translate(-155.78 -254.69)"/>
    </g>
  </g>
</svg>
