<svg xmlns="http://www.w3.org/2000/svg" xmlns:xlink="http://www.w3.org/1999/xlink" width="319.89" height="307.139" viewBox="0 0 319.89 307.139">
  <defs>
    <clipPath id="clip-path">
      <rect id="Rectangle_17" data-name="Rectangle 17" width="319.89" height="307.139"/>
    </clipPath>
  </defs>
  <g id="Group_62" data-name="Group 62" transform="translate(0)">
    <g id="Group_16" data-name="Group 16" transform="translate(0 0)" clip-path="url(#clip-path)">
      <path id="Path_23" data-name="Path 23" d="M91.134,198.36a26.78,26.78,0,0,0-.187-2.886c.061.962.107,1.914.187,2.886" transform="translate(21.944 47.164)"/>
      <path id="Path_24" data-name="Path 24" d="M91.015,196.529q-.175-2.739-.266-5.428a23.725,23.725,0,0,0,.266,5.428" transform="translate(21.876 46.109)"/>
      <path id="Path_25" data-name="Path 25" d="M195.106,229.8c-3.43,0-6.874.062-10.33.154a88.286,88.286,0,0,0,10.33-.154" transform="translate(44.583 55.446)"/>
      <path id="Path_26" data-name="Path 26" d="M264.514,226.9c15.919-8.49,33.652-10.633,50.875-14.179,1.458-6.7,3.014-13.411,4.5-20.139a40.977,40.977,0,0,0-1.65-10.625c-1.894-5.932,2.356-14.962-7.522-17.724-1-.278-1.359-2.815-2.016-4.3l5.921-.345c.034-.606.071-1.225.109-1.851-16.677-30.064-14.014-67.272-9.257-101.416a6.658,6.658,0,0,0-2.226-1.2c-4.666-1.264-6.869-3.276-5.486-8.335.41-1.5-.215-3.262-.243-4.906-.094-5.424-.161-10.85-.243-16.274A150.548,150.548,0,0,1,275.65,0c-1.522,0-3.045,0-4.565.031C247.722.5,224.368,1.391,201,1.731c-20.2.3-40.416.062-59.814.062V14.425l3.865-7.7c.95,1.9,1.85,2.906,1.91,3.957.165,2.86.42,5.738.541,8.606a15.157,15.157,0,0,1,11.5-.915,148.471,148.471,0,0,0,80.683,0c13.654-3.724,33.515-8.689,37.238-1.241,6.523,10.149,9.653,22.84,11.877,36.089-12.132-4.791-30.393-11.287-46.909-15.34-27.859-6.834-40.548,18.421-68.684,30.833S140.386,64.849,126.042,56.3c-9.6-5.722-14.993-2.428-17.514.379.168-1.035.326-2.078.457-3.129-.96-1.617-.972-4.26-.71-8.677.1-1.65-.01-3.312.027-4.966.241-11.1.592-22.2.628-33.3A5.324,5.324,0,0,0,106.393,2.5C103.72,1.44,100.7,1.26,97.778.711c.6,2.166,1.708,3.9,1.234,4.8-2.473,4.7-13.963,4.081-16.745-.746,6.406,1.751,6.406,1.751,7.9-2.712-10.187-1-11.545-.529-14.9,5.618L71.885,3.1c-4.094.673-7.857,2.329-11.061,1.581a31.691,31.691,0,0,1-5.65-2C42.631,19.834,28.867,39.227,13.607,49.434,11.386,60.156,9.027,70.852,6.99,81.608c-2.614,13.8-5.935,27.625-6.772,41.568-.8,13.285.762,26.783,2.073,40.109a91.954,91.954,0,0,0,10.7,35.771c25.084,13.675,51.29,23.984,76.985,35.826,2.985-5.3,5.539-5.774,9.193-.5a19.4,19.4,0,0,1,2.808,9.244,158.777,158.777,0,0,1,.182,17.995,8.872,8.872,0,0,0,5.254,8.981c3.036,1.584,6.015,3.273,9.019,4.915q-.084,1.026-.169,2.052c-1.853.509-3.942.642-5.509,1.615a71.652,71.652,0,0,0-7.023,5.573c1.9,2.2,3.382,5.354,5.788,6.427,6.574,2.933,13.374,5.74,20.373,7.276A371.024,371.024,0,0,0,274.144,301.5c9.851-1.711,19.492-5.361,28.814-9.14,6.534-2.65,6.3-6.918.34-10.881-2.149-1.429-4.264-2.908-7.5-5.119,4.024-1.98,6.79-3.669,9.778-4.739a11.953,11.953,0,0,0,3.582-1.964,161.223,161.223,0,0,1,2.061-35.189c-15.569-1.643-31.139-4.6-46.708-7.564M100.41,68.3c-1.3,15.979-2.97,31.932-3.957,47.928-1.348,21.838-2.195,43.705-3.268,65.558-.382,7.8-6.373,10.787-12.254,13.184-4.471,1.822-9.5,2.278-14.275,3.339-.6-2.394-.465-4.5-1.445-5.411-11.689-10.887-15.67-25.357-17.218-40.209-3.144-30.185-1.77-60.287,5.546-89.9.885-3.585,2.692-6.934,3.728-10.493.354-1.218-.35-2.744-.824-5.73,11.656-11.575,18.2-11.687,42.3.336.535-1.418,1.055-2.793,1.84-4.872.755,1.29,1.486,1.951,1.45,2.567C101.56,52.5,101.05,60.4,100.41,68.3M229.359,285.4c-27.806.734-56.268,3.44-82.766-7.6-7.448-2.483-17.378,0-26.067,0,1.136-5.683-.856-9.28-5.011-11.754.015.195.031.389.046.582-.015-.194-.031-.387-.046-.582-.382-.227-.777-.449-1.2-.659.418.21.813.432,1.2.659-2.51-33.32-8.565-66.633,5.011-98.72,0,32.273-3.724,65.788,6.206,98.061,1.241,3.724,8.689,4.965,12.413,4.965,17.378,2.483,34.756,4.965,52.134,8.689,12.693,2.929,25.387,5.848,38.08,6.36,3.454-.091,6.9-.154,10.33-.154a87.983,87.983,0,0,1-10.33.154" transform="translate(0 0)"/>
    </g>
  </g>
</svg>
